<mxfile host="Electron" modified="2025-04-08T15:53:39.795Z" agent="Mozilla/5.0 (Windows NT 10.0; Win64; x64) AppleWebKit/537.36 (KHTML, like Gecko) draw.io/24.2.5 Chrome/120.0.6099.109 Electron/28.1.0 Safari/537.36" etag="RBBkulrHzNCtzvVexRUC" version="24.2.5" type="device">
  <diagram name="PÃ¡gina-1" id="yNopc5taavMH81DvXJD9">
    <mxGraphModel dx="880" dy="1701" grid="0" gridSize="10" guides="1" tooltips="1" connect="1" arrows="1" fold="1" page="1" pageScale="1" pageWidth="827" pageHeight="1169" background="none" math="0" shadow="0">
      <root>
        <mxCell id="0" />
        <mxCell id="1" parent="0" />
        <mxCell id="Fg2gXtm1SzpuHUXcxobq-6" value="&lt;font style=&quot;font-size: 20px;&quot;&gt;Contacto&lt;/font&gt;" style="swimlane;childLayout=stackLayout;horizontal=1;startSize=50;horizontalStack=0;rounded=1;fontSize=14;fontStyle=0;strokeWidth=2;resizeParent=0;resizeLast=1;shadow=0;dashed=0;align=center;arcSize=4;whiteSpace=wrap;html=1;fillColor=#a20025;strokeColor=#6F0000;fontColor=#ffffff;" parent="1" vertex="1">
          <mxGeometry x="670" y="110" width="310" height="400" as="geometry" />
        </mxCell>
        <mxCell id="Fg2gXtm1SzpuHUXcxobq-7" value="&lt;div style=&quot;font-size: 18px;&quot;&gt;&lt;font style=&quot;font-size: 18px;&quot;&gt;+&lt;span style=&quot;background-color: initial;&quot;&gt;&amp;nbsp;codigoContacto&lt;/span&gt;&lt;/font&gt;&lt;/div&gt;&lt;font style=&quot;font-size: 18px;&quot;&gt;- nombre&lt;/font&gt;&lt;div style=&quot;font-size: 18px;&quot;&gt;&lt;font style=&quot;font-size: 18px;&quot;&gt;- primerApellido&lt;/font&gt;&lt;/div&gt;&lt;div style=&quot;font-size: 18px;&quot;&gt;&lt;font style=&quot;font-size: 18px;&quot;&gt;- segundoApellido&lt;/font&gt;&lt;/div&gt;&lt;div style=&quot;font-size: 18px;&quot;&gt;&lt;font style=&quot;font-size: 18px;&quot;&gt;- Correo&lt;/font&gt;&lt;/div&gt;&lt;div style=&quot;font-size: 18px;&quot;&gt;&lt;font style=&quot;font-size: 18px;&quot;&gt;- Direccion&lt;/font&gt;&lt;/div&gt;&lt;div style=&quot;font-size: 18px;&quot;&gt;&lt;font style=&quot;font-size: 18px;&quot;&gt;- telefonoMovil&lt;br&gt;&lt;/font&gt;&lt;/div&gt;&lt;div style=&quot;font-size: 18px;&quot;&gt;&lt;font style=&quot;font-size: 18px;&quot;&gt;- telefonoFijo&lt;/font&gt;&lt;/div&gt;" style="align=left;strokeColor=none;fillColor=none;spacingLeft=4;fontSize=12;verticalAlign=top;resizable=0;rotatable=0;part=1;html=1;rounded=1;" parent="Fg2gXtm1SzpuHUXcxobq-6" vertex="1">
          <mxGeometry y="50" width="310" height="350" as="geometry" />
        </mxCell>
        <mxCell id="Fg2gXtm1SzpuHUXcxobq-10" value="&lt;font style=&quot;font-size: 20px;&quot;&gt;Queja&lt;/font&gt;" style="swimlane;childLayout=stackLayout;horizontal=1;startSize=50;horizontalStack=0;rounded=1;fontSize=14;fontStyle=0;strokeWidth=2;resizeParent=0;resizeLast=1;shadow=0;dashed=0;align=center;arcSize=4;whiteSpace=wrap;html=1;fillColor=#CC6600;strokeColor=#BD7000;fontColor=#FFFFFF;" parent="1" vertex="1">
          <mxGeometry x="1290" y="170" width="200" height="170" as="geometry" />
        </mxCell>
        <mxCell id="Fg2gXtm1SzpuHUXcxobq-11" value="&lt;font style=&quot;font-size: 18px;&quot;&gt;+ codigoQueja&lt;/font&gt;&lt;div style=&quot;font-size: 18px;&quot;&gt;&lt;font style=&quot;font-size: 18px;&quot;&gt;- fecha&lt;/font&gt;&lt;/div&gt;&lt;div style=&quot;font-size: 18px;&quot;&gt;&lt;font style=&quot;font-size: 18px;&quot;&gt;- texto&lt;/font&gt;&lt;/div&gt;" style="align=left;strokeColor=none;fillColor=none;spacingLeft=4;fontSize=12;verticalAlign=top;resizable=0;rotatable=0;part=1;html=1;rounded=1;" parent="Fg2gXtm1SzpuHUXcxobq-10" vertex="1">
          <mxGeometry y="50" width="200" height="120" as="geometry" />
        </mxCell>
        <mxCell id="Fg2gXtm1SzpuHUXcxobq-12" value="" style="edgeStyle=entityRelationEdgeStyle;fontSize=14;html=1;endArrow=ERzeroToMany;rounded=1;endSize=12;endFill=0;" parent="1" source="Fg2gXtm1SzpuHUXcxobq-21" target="Fg2gXtm1SzpuHUXcxobq-11" edge="1">
          <mxGeometry width="100" height="100" relative="1" as="geometry">
            <mxPoint x="1120" y="280" as="sourcePoint" />
            <mxPoint x="1160" y="330" as="targetPoint" />
            <Array as="points">
              <mxPoint x="1090" y="350" />
            </Array>
          </mxGeometry>
        </mxCell>
        <mxCell id="Fg2gXtm1SzpuHUXcxobq-26" value="" style="rounded=1;orthogonalLoop=1;jettySize=auto;html=1;strokeColor=default;edgeStyle=orthogonalEdgeStyle;curved=0;endArrow=none;endFill=0;startArrow=ERoneToMany;startFill=0;entryX=0.5;entryY=0;entryDx=0;entryDy=0;endSize=12;startSize=12;" parent="1" source="Fg2gXtm1SzpuHUXcxobq-16" target="Fg2gXtm1SzpuHUXcxobq-25" edge="1">
          <mxGeometry relative="1" as="geometry">
            <mxPoint x="1560" y="70" as="targetPoint" />
          </mxGeometry>
        </mxCell>
        <mxCell id="Fg2gXtm1SzpuHUXcxobq-16" value="&lt;font style=&quot;font-size: 20px;&quot;&gt;CategoriaQueja&lt;/font&gt;" style="swimlane;childLayout=stackLayout;horizontal=1;startSize=50;horizontalStack=0;rounded=1;fontSize=14;fontStyle=0;strokeWidth=2;resizeParent=0;resizeLast=1;shadow=0;dashed=0;align=center;arcSize=4;whiteSpace=wrap;html=1;fillColor=#cc6600;strokeColor=#B09500;fontColor=#FFFFFF;" parent="1" vertex="1">
          <mxGeometry x="1290" y="-70" width="200" height="170" as="geometry" />
        </mxCell>
        <mxCell id="Fg2gXtm1SzpuHUXcxobq-17" value="&lt;span style=&quot;font-size: 18px;&quot;&gt;+ codigo&lt;/span&gt;&lt;div&gt;&lt;span style=&quot;font-size: 18px;&quot;&gt;- Nombre&lt;/span&gt;&lt;/div&gt;" style="align=left;strokeColor=none;fillColor=none;spacingLeft=4;fontSize=12;verticalAlign=top;resizable=0;rotatable=0;part=1;html=1;rounded=1;" parent="Fg2gXtm1SzpuHUXcxobq-16" vertex="1">
          <mxGeometry y="50" width="200" height="120" as="geometry" />
        </mxCell>
        <mxCell id="Fg2gXtm1SzpuHUXcxobq-21" value="Emite" style="shape=rhombus;perimeter=rhombusPerimeter;whiteSpace=wrap;html=1;align=center;fillColor=#cc6600;fontColor=#ffffff;strokeColor=#7D3E00;fontSize=20;rounded=1;arcSize=0;" parent="1" vertex="1">
          <mxGeometry x="1080" y="240" width="120" height="80" as="geometry" />
        </mxCell>
        <mxCell id="Fg2gXtm1SzpuHUXcxobq-22" value="" style="endArrow=none;html=1;rounded=1;entryX=0;entryY=0.5;entryDx=0;entryDy=0;exitX=0.993;exitY=0.347;exitDx=0;exitDy=0;exitPerimeter=0;" parent="1" source="Fg2gXtm1SzpuHUXcxobq-7" target="Fg2gXtm1SzpuHUXcxobq-21" edge="1">
          <mxGeometry relative="1" as="geometry">
            <mxPoint x="1000" y="280" as="sourcePoint" />
            <mxPoint x="1250" y="110" as="targetPoint" />
          </mxGeometry>
        </mxCell>
        <mxCell id="Fg2gXtm1SzpuHUXcxobq-25" value="&lt;font style=&quot;font-size: 20px;&quot;&gt;Posee&lt;/font&gt;" style="rhombus;whiteSpace=wrap;html=1;fontSize=14;fillColor=#cc6600;strokeColor=#B09500;fontColor=#FFFFFF;fontStyle=0;startSize=50;rounded=1;strokeWidth=2;shadow=0;dashed=0;arcSize=4;" parent="1" vertex="1">
          <mxGeometry x="1530" y="80" width="80" height="80" as="geometry" />
        </mxCell>
        <mxCell id="Fg2gXtm1SzpuHUXcxobq-30" value="" style="endArrow=none;html=1;rounded=1;exitX=1;exitY=0.25;exitDx=0;exitDy=0;entryX=0.5;entryY=1;entryDx=0;entryDy=0;edgeStyle=orthogonalEdgeStyle;" parent="1" source="Fg2gXtm1SzpuHUXcxobq-11" target="Fg2gXtm1SzpuHUXcxobq-25" edge="1">
          <mxGeometry relative="1" as="geometry">
            <mxPoint x="1490" y="240" as="sourcePoint" />
            <mxPoint x="1650" y="240" as="targetPoint" />
          </mxGeometry>
        </mxCell>
        <mxCell id="Fg2gXtm1SzpuHUXcxobq-33" value="&lt;span style=&quot;font-size: 20px;&quot;&gt;Vacante&lt;/span&gt;" style="swimlane;childLayout=stackLayout;horizontal=1;startSize=50;horizontalStack=0;rounded=1;fontSize=14;fontStyle=0;strokeWidth=2;resizeParent=0;resizeLast=1;shadow=0;dashed=0;align=center;arcSize=4;whiteSpace=wrap;html=1;fillColor=#647687;strokeColor=#314354;fontColor=#ffffff;" parent="1" vertex="1">
          <mxGeometry x="243.75" y="-202" width="190" height="242" as="geometry" />
        </mxCell>
        <mxCell id="Fg2gXtm1SzpuHUXcxobq-34" value="&lt;div style=&quot;font-size: 18px;&quot;&gt;+ codigoVacante&lt;/div&gt;&lt;div style=&quot;font-size: 18px;&quot;&gt;- salarioMensual&lt;/div&gt;&lt;div style=&quot;font-size: 18px;&quot;&gt;&lt;br&gt;&lt;/div&gt;" style="align=left;strokeColor=none;fillColor=none;spacingLeft=4;fontSize=12;verticalAlign=top;resizable=0;rotatable=0;part=1;html=1;rounded=1;" parent="Fg2gXtm1SzpuHUXcxobq-33" vertex="1">
          <mxGeometry y="50" width="190" height="192" as="geometry" />
        </mxCell>
        <mxCell id="Lw0eL12o5XIpeNC7XepV-2" value="" style="edgeStyle=orthogonalEdgeStyle;rounded=1;orthogonalLoop=1;jettySize=auto;html=1;endArrow=none;endFill=0;startArrow=ERzeroToMany;startFill=0;targetPerimeterSpacing=0;startSize=12;sourcePerimeterSpacing=0;" parent="1" source="Fg2gXtm1SzpuHUXcxobq-36" target="Lw0eL12o5XIpeNC7XepV-1" edge="1">
          <mxGeometry relative="1" as="geometry" />
        </mxCell>
        <mxCell id="Fg2gXtm1SzpuHUXcxobq-36" value="&lt;span style=&quot;font-size: 20px;&quot;&gt;Requisito&lt;/span&gt;" style="swimlane;childLayout=stackLayout;horizontal=1;startSize=50;horizontalStack=0;rounded=1;fontSize=14;fontStyle=0;strokeWidth=2;resizeParent=0;resizeLast=1;shadow=0;dashed=0;align=center;arcSize=4;whiteSpace=wrap;html=1;fillColor=#647687;strokeColor=#314354;fontColor=#ffffff;" parent="1" vertex="1">
          <mxGeometry x="800" y="-140" width="190" height="120" as="geometry" />
        </mxCell>
        <mxCell id="Fg2gXtm1SzpuHUXcxobq-37" value="&lt;div style=&quot;font-size: 18px;&quot;&gt;+ codigoRequisito&lt;/div&gt;&lt;div style=&quot;font-size: 18px;&quot;&gt;- nombreRequisito&lt;/div&gt;" style="align=left;strokeColor=none;fillColor=none;spacingLeft=4;fontSize=12;verticalAlign=top;resizable=0;rotatable=0;part=1;html=1;rounded=1;" parent="Fg2gXtm1SzpuHUXcxobq-36" vertex="1">
          <mxGeometry y="50" width="190" height="70" as="geometry" />
        </mxCell>
        <mxCell id="Fg2gXtm1SzpuHUXcxobq-38" value="&lt;span style=&quot;font-size: 20px;&quot;&gt;Solicitud&lt;/span&gt;" style="swimlane;childLayout=stackLayout;horizontal=1;startSize=50;horizontalStack=0;rounded=1;fontSize=14;fontStyle=0;strokeWidth=2;resizeParent=0;resizeLast=1;shadow=0;dashed=0;align=center;arcSize=4;whiteSpace=wrap;html=1;fillColor=#647687;strokeColor=#314354;fontColor=#ffffff;" parent="1" vertex="1">
          <mxGeometry x="238.13" y="290" width="201.25" height="242" as="geometry" />
        </mxCell>
        <mxCell id="Fg2gXtm1SzpuHUXcxobq-39" value="&lt;div style=&quot;font-size: 18px;&quot;&gt;+ codigoSolicitud&lt;/div&gt;&lt;div style=&quot;font-size: 18px;&quot;&gt;- titulosAcademicos&lt;/div&gt;" style="align=left;strokeColor=none;fillColor=none;spacingLeft=4;fontSize=12;verticalAlign=top;resizable=0;rotatable=0;part=1;html=1;rounded=1;" parent="Fg2gXtm1SzpuHUXcxobq-38" vertex="1">
          <mxGeometry y="50" width="201.25" height="192" as="geometry" />
        </mxCell>
        <mxCell id="Fg2gXtm1SzpuHUXcxobq-40" value="&lt;span style=&quot;font-size: 20px;&quot;&gt;Ubicacion&lt;/span&gt;" style="swimlane;childLayout=stackLayout;horizontal=1;startSize=50;horizontalStack=0;rounded=1;fontSize=14;fontStyle=0;strokeWidth=2;resizeParent=0;resizeLast=1;shadow=0;dashed=0;align=center;arcSize=4;whiteSpace=wrap;html=1;fillColor=#647687;strokeColor=#314354;fontColor=#ffffff;" parent="1" vertex="1">
          <mxGeometry x="800" y="-300" width="190" height="120" as="geometry" />
        </mxCell>
        <mxCell id="Fg2gXtm1SzpuHUXcxobq-41" value="&lt;div style=&quot;font-size: 18px;&quot;&gt;+ codigoUbicacion&lt;/div&gt;&lt;div style=&quot;font-size: 18px;&quot;&gt;- nombreUbicacion&lt;/div&gt;" style="align=left;strokeColor=none;fillColor=none;spacingLeft=4;fontSize=12;verticalAlign=top;resizable=0;rotatable=0;part=1;html=1;rounded=1;" parent="Fg2gXtm1SzpuHUXcxobq-40" vertex="1">
          <mxGeometry y="50" width="190" height="70" as="geometry" />
        </mxCell>
        <mxCell id="Lw0eL12o5XIpeNC7XepV-1" value="Posee" style="rhombus;whiteSpace=wrap;html=1;fontSize=20;fillColor=#647687;strokeColor=#314354;fontColor=#ffffff;fontStyle=0;startSize=50;rounded=1;strokeWidth=2;shadow=0;dashed=0;arcSize=4;" parent="1" vertex="1">
          <mxGeometry x="570" y="-120" width="95" height="80" as="geometry" />
        </mxCell>
        <mxCell id="Lw0eL12o5XIpeNC7XepV-3" value="" style="edgeStyle=orthogonalEdgeStyle;rounded=1;orthogonalLoop=1;jettySize=auto;html=1;endArrow=none;endFill=0;startArrow=ERzeroToMany;startFill=0;targetPerimeterSpacing=0;startSize=12;sourcePerimeterSpacing=0;exitX=1.02;exitY=0.585;exitDx=0;exitDy=0;exitPerimeter=0;entryX=0;entryY=0.5;entryDx=0;entryDy=0;" parent="1" target="Lw0eL12o5XIpeNC7XepV-1" edge="1">
          <mxGeometry relative="1" as="geometry">
            <mxPoint x="437.5500000000002" y="-79.68000000000006" as="sourcePoint" />
            <mxPoint x="570" y="-70" as="targetPoint" />
          </mxGeometry>
        </mxCell>
        <mxCell id="Lw0eL12o5XIpeNC7XepV-5" value="Radica" style="rhombus;whiteSpace=wrap;html=1;fontSize=20;fillColor=#647687;strokeColor=#314354;fontColor=#ffffff;fontStyle=0;startSize=50;rounded=1;strokeWidth=2;shadow=0;dashed=0;arcSize=4;" parent="1" vertex="1">
          <mxGeometry x="570" y="-280" width="95" height="80" as="geometry" />
        </mxCell>
        <mxCell id="Lw0eL12o5XIpeNC7XepV-6" value="" style="edgeStyle=orthogonalEdgeStyle;rounded=1;orthogonalLoop=1;jettySize=auto;html=1;endArrow=none;endFill=0;startArrow=ERzeroToMany;startFill=0;targetPerimeterSpacing=0;startSize=12;sourcePerimeterSpacing=0;exitX=0;exitY=0.5;exitDx=0;exitDy=0;entryX=1;entryY=0.5;entryDx=0;entryDy=0;" parent="1" source="Fg2gXtm1SzpuHUXcxobq-40" target="Lw0eL12o5XIpeNC7XepV-5" edge="1">
          <mxGeometry relative="1" as="geometry">
            <mxPoint x="810" y="40" as="sourcePoint" />
            <mxPoint x="675" y="40" as="targetPoint" />
          </mxGeometry>
        </mxCell>
        <mxCell id="Lw0eL12o5XIpeNC7XepV-7" value="" style="edgeStyle=orthogonalEdgeStyle;rounded=1;orthogonalLoop=1;jettySize=auto;html=1;endArrow=none;endFill=0;startArrow=ERone;startFill=0;targetPerimeterSpacing=0;startSize=14;sourcePerimeterSpacing=0;exitX=0.75;exitY=0;exitDx=0;exitDy=0;entryX=0;entryY=0.5;entryDx=0;entryDy=0;" parent="1" source="Fg2gXtm1SzpuHUXcxobq-33" target="Lw0eL12o5XIpeNC7XepV-5" edge="1">
          <mxGeometry relative="1" as="geometry">
            <mxPoint x="444" y="-30" as="sourcePoint" />
            <mxPoint x="580" y="-30" as="targetPoint" />
          </mxGeometry>
        </mxCell>
        <mxCell id="Lw0eL12o5XIpeNC7XepV-8" value="&lt;span style=&quot;font-size: 20px;&quot;&gt;TipoContrato&lt;/span&gt;" style="swimlane;childLayout=stackLayout;horizontal=1;startSize=50;horizontalStack=0;rounded=1;fontSize=14;fontStyle=0;strokeWidth=2;resizeParent=0;resizeLast=1;shadow=0;dashed=0;align=center;arcSize=4;whiteSpace=wrap;html=1;fillColor=#647687;strokeColor=#314354;fontColor=#ffffff;" parent="1" vertex="1">
          <mxGeometry x="800" y="-454" width="190" height="120" as="geometry" />
        </mxCell>
        <mxCell id="Lw0eL12o5XIpeNC7XepV-9" value="&lt;div style=&quot;font-size: 18px;&quot;&gt;+ codigoTipo&lt;/div&gt;&lt;div style=&quot;font-size: 18px;&quot;&gt;- NombreTipo&lt;/div&gt;" style="align=left;strokeColor=none;fillColor=none;spacingLeft=4;fontSize=12;verticalAlign=top;resizable=0;rotatable=0;part=1;html=1;rounded=1;" parent="Lw0eL12o5XIpeNC7XepV-8" vertex="1">
          <mxGeometry y="50" width="190" height="70" as="geometry" />
        </mxCell>
        <mxCell id="Lw0eL12o5XIpeNC7XepV-10" value="Clasifica" style="rhombus;whiteSpace=wrap;html=1;fontSize=20;fillColor=#647687;strokeColor=#314354;fontColor=#ffffff;fontStyle=0;startSize=50;rounded=1;strokeWidth=2;shadow=0;dashed=0;arcSize=4;" parent="1" vertex="1">
          <mxGeometry x="560" y="-440" width="115" height="80" as="geometry" />
        </mxCell>
        <mxCell id="Lw0eL12o5XIpeNC7XepV-11" value="" style="edgeStyle=orthogonalEdgeStyle;rounded=1;orthogonalLoop=1;jettySize=auto;html=1;endArrow=none;endFill=0;startArrow=ERzeroToMany;startFill=0;targetPerimeterSpacing=0;startSize=12;sourcePerimeterSpacing=0;entryX=1;entryY=0.5;entryDx=0;entryDy=0;" parent="1" target="Lw0eL12o5XIpeNC7XepV-10" edge="1">
          <mxGeometry relative="1" as="geometry">
            <mxPoint x="800" y="-400" as="sourcePoint" />
            <mxPoint x="675" y="-220" as="targetPoint" />
          </mxGeometry>
        </mxCell>
        <mxCell id="Lw0eL12o5XIpeNC7XepV-12" value="" style="edgeStyle=orthogonalEdgeStyle;rounded=1;orthogonalLoop=1;jettySize=auto;html=1;endArrow=none;endFill=0;startArrow=ERone;startFill=0;targetPerimeterSpacing=0;startSize=14;sourcePerimeterSpacing=0;exitX=0.5;exitY=0;exitDx=0;exitDy=0;entryX=0;entryY=0.5;entryDx=0;entryDy=0;" parent="1" source="Fg2gXtm1SzpuHUXcxobq-33" target="Lw0eL12o5XIpeNC7XepV-10" edge="1">
          <mxGeometry relative="1" as="geometry">
            <mxPoint x="393" y="-192" as="sourcePoint" />
            <mxPoint x="580" y="-290" as="targetPoint" />
          </mxGeometry>
        </mxCell>
        <mxCell id="Lw0eL12o5XIpeNC7XepV-13" value="Ocupa" style="rhombus;whiteSpace=wrap;html=1;fontSize=20;fillColor=#647687;strokeColor=#314354;fontColor=#ffffff;fontStyle=0;startSize=50;rounded=1;strokeWidth=2;shadow=0;dashed=0;arcSize=4;" parent="1" vertex="1">
          <mxGeometry x="262.5" y="120" width="152.5" height="80" as="geometry" />
        </mxCell>
        <mxCell id="Lw0eL12o5XIpeNC7XepV-14" value="Solicita" style="rhombus;whiteSpace=wrap;html=1;fontSize=20;fillColor=#647687;strokeColor=#314354;fontColor=#ffffff;fontStyle=0;startSize=50;rounded=1;strokeWidth=2;shadow=0;dashed=0;arcSize=4;" parent="1" vertex="1">
          <mxGeometry x="490" y="371" width="152.5" height="80" as="geometry" />
        </mxCell>
        <mxCell id="Lw0eL12o5XIpeNC7XepV-15" value="" style="edgeStyle=orthogonalEdgeStyle;rounded=1;orthogonalLoop=1;jettySize=auto;html=1;endArrow=none;endFill=0;startArrow=ERzeroToMany;startFill=0;targetPerimeterSpacing=0;startSize=12;sourcePerimeterSpacing=0;exitX=0.5;exitY=0;exitDx=0;exitDy=0;entryX=0.5;entryY=1;entryDx=0;entryDy=0;" parent="1" source="Fg2gXtm1SzpuHUXcxobq-38" target="Lw0eL12o5XIpeNC7XepV-13" edge="1">
          <mxGeometry relative="1" as="geometry">
            <mxPoint x="448" y="-210" as="sourcePoint" />
            <mxPoint x="580" y="-210" as="targetPoint" />
          </mxGeometry>
        </mxCell>
        <mxCell id="Lw0eL12o5XIpeNC7XepV-16" value="" style="edgeStyle=orthogonalEdgeStyle;rounded=1;orthogonalLoop=1;jettySize=auto;html=1;endArrow=none;endFill=0;startArrow=ERone;startFill=0;targetPerimeterSpacing=0;startSize=14;sourcePerimeterSpacing=0;exitX=0.5;exitY=1;exitDx=0;exitDy=0;entryX=0.5;entryY=0;entryDx=0;entryDy=0;" parent="1" source="Fg2gXtm1SzpuHUXcxobq-34" target="Lw0eL12o5XIpeNC7XepV-13" edge="1">
          <mxGeometry relative="1" as="geometry">
            <mxPoint x="349" y="-372" as="sourcePoint" />
            <mxPoint x="570" y="-640" as="targetPoint" />
          </mxGeometry>
        </mxCell>
        <mxCell id="Lw0eL12o5XIpeNC7XepV-17" value="" style="edgeStyle=orthogonalEdgeStyle;rounded=1;orthogonalLoop=1;jettySize=auto;html=1;endArrow=none;endFill=0;startArrow=ERone;startFill=0;targetPerimeterSpacing=0;startSize=14;sourcePerimeterSpacing=0;entryX=1;entryY=0.5;entryDx=0;entryDy=0;exitX=0.004;exitY=0.126;exitDx=0;exitDy=0;exitPerimeter=0;" parent="1" source="PtHalDd0rI0DwLbg6wlF-2" target="Lw0eL12o5XIpeNC7XepV-14" edge="1">
          <mxGeometry relative="1" as="geometry">
            <mxPoint x="720" y="231" as="sourcePoint" />
            <mxPoint x="349" y="-50" as="targetPoint" />
          </mxGeometry>
        </mxCell>
        <mxCell id="Lw0eL12o5XIpeNC7XepV-18" value="" style="edgeStyle=orthogonalEdgeStyle;rounded=1;orthogonalLoop=1;jettySize=auto;html=1;endArrow=none;endFill=0;startArrow=ERzeroToMany;startFill=0;targetPerimeterSpacing=0;startSize=12;sourcePerimeterSpacing=0;exitX=1.008;exitY=0.365;exitDx=0;exitDy=0;entryX=0;entryY=0.5;entryDx=0;entryDy=0;exitPerimeter=0;" parent="1" source="Fg2gXtm1SzpuHUXcxobq-39" target="Lw0eL12o5XIpeNC7XepV-14" edge="1">
          <mxGeometry relative="1" as="geometry">
            <mxPoint x="349" y="120" as="sourcePoint" />
            <mxPoint x="349" y="30" as="targetPoint" />
          </mxGeometry>
        </mxCell>
        <mxCell id="PtHalDd0rI0DwLbg6wlF-1" value="&lt;font style=&quot;font-size: 18px;&quot;&gt;Trabajador&lt;/font&gt;" style="swimlane;childLayout=stackLayout;horizontal=1;startSize=40;horizontalStack=0;rounded=1;fontSize=14;fontStyle=0;strokeWidth=2;resizeParent=0;resizeLast=1;shadow=0;dashed=0;align=center;arcSize=4;whiteSpace=wrap;html=1;fillColor=#a20025;strokeColor=#6F0000;fontColor=#ffffff;" parent="1" vertex="1">
          <mxGeometry x="700" y="360" width="260" height="130" as="geometry" />
        </mxCell>
        <mxCell id="PtHalDd0rI0DwLbg6wlF-2" value="&lt;div style=&quot;font-size: 18px;&quot;&gt;&lt;span style=&quot;background-color: initial;&quot;&gt;- experienciaProfesional&lt;/span&gt;&lt;br&gt;&lt;/div&gt;&lt;div style=&quot;font-size: 18px;&quot;&gt;&lt;div&gt;- curriculum&lt;/div&gt;&lt;/div&gt;" style="align=left;strokeColor=none;fillColor=none;spacingLeft=4;fontSize=12;verticalAlign=top;resizable=0;rotatable=0;part=1;html=1;rounded=1;" parent="PtHalDd0rI0DwLbg6wlF-1" vertex="1">
          <mxGeometry y="40" width="260" height="90" as="geometry" />
        </mxCell>
      </root>
    </mxGraphModel>
  </diagram>
</mxfile>
